<?xml version="1.0" encoding="UTF-8" standalone="no"?>
<!-- Created with Inkscape (http://www.inkscape.org/) -->

<svg
   xmlns:dc="http://purl.org/dc/elements/1.1/"
   xmlns:cc="http://creativecommons.org/ns#"
   xmlns:rdf="http://www.w3.org/1999/02/22-rdf-syntax-ns#"
   xmlns:svg="http://www.w3.org/2000/svg"
   xmlns="http://www.w3.org/2000/svg"
   xmlns:sodipodi="http://sodipodi.sourceforge.net/DTD/sodipodi-0.dtd"
   xmlns:inkscape="http://www.inkscape.org/namespaces/inkscape"
   version="1.1"
   id="svg2"
   xml:space="preserve"
   width="511.11334"
   height="161.23067"
   viewBox="0 0 511.11334 161.23067"
   sodipodi:docname="DigitalSociety_rgb.svg"
   inkscape:version="0.92.5 (2060ec1f9f, 2020-04-08)"><metadata
     id="metadata8"><rdf:RDF><cc:Work
         rdf:about=""><dc:format>image/svg+xml</dc:format><dc:type
           rdf:resource="http://purl.org/dc/dcmitype/StillImage" /><dc:title></dc:title></cc:Work></rdf:RDF></metadata><defs
     id="defs6"><clipPath
       clipPathUnits="userSpaceOnUse"
       id="clipPath20"><path
         d="M 0,120.923 H 383.335 V 0 H 0 Z"
         id="path18"
         inkscape:connector-curvature="0" /></clipPath></defs><sodipodi:namedview
     pagecolor="#ffffff"
     bordercolor="#666666"
     borderopacity="1"
     objecttolerance="10"
     gridtolerance="10"
     guidetolerance="10"
     inkscape:pageopacity="0"
     inkscape:pageshadow="2"
     inkscape:window-width="640"
     inkscape:window-height="480"
     id="namedview4"
     showgrid="false"
     inkscape:zoom="0.72782291"
     inkscape:cx="255.55667"
     inkscape:cy="80.615334"
     inkscape:window-x="0"
     inkscape:window-y="1"
     inkscape:window-maximized="0"
     inkscape:current-layer="g10" /><g
     id="g10"
     inkscape:groupmode="layer"
     inkscape:label="DigitalSociety_rgb"
     transform="matrix(1.3333333,0,0,-1.3333333,0,161.23067)"><path
       d="m 0,68.985 h 51.024 v 51.024 H 0 Z"
       style="fill:#4ea93f;fill-opacity:1;fill-rule:nonzero;stroke:none"
       id="path12"
       inkscape:connector-curvature="0" /><g
       id="g14"><g
         id="g16"
         clip-path="url(#clipPath20)"><g
           id="g22"
           transform="translate(100.4479,108.7539)"><path
             d="m 0,0 c -1.728,1.729 -4.464,2.88 -8.281,2.88 h -6.336 v -34.347 h 6.336 c 4.032,0 6.769,1.225 8.497,3.097 2.952,3.24 3.456,8.568 3.456,14.184 C 3.672,-8.425 3.096,-3.168 0,0 m 9.217,-31.755 c -2.881,-4.68 -8.641,-8.064 -16.634,-8.064 h -16.489 v 51.052 h 16.489 c 7.993,0 13.826,-3.6 16.706,-8.281 2.88,-4.608 3.816,-10.224 3.816,-17.138 0,-6.912 -1.008,-12.96 -3.888,-17.569"
             style="fill:#000000;fill-opacity:1;fill-rule:nonzero;stroke:none"
             id="path24"
             inkscape:connector-curvature="0" /></g><g
           id="g26"
           transform="translate(122.7658,76.6396)"><path
             d="M 0,0 H 10.873 V 35.643 H 0 v 7.705 H 31.25 V 35.643 H 20.305 V 0 H 31.25 V -7.705 H 0 Z"
             style="fill:#000000;fill-opacity:1;fill-rule:nonzero;stroke:none"
             id="path28"
             inkscape:connector-curvature="0" /></g><g
           id="g30"
           transform="translate(169.8532,72.8232)"><path
             d="m 0,0 c -5.688,5.544 -6.408,13.465 -6.408,21.602 0,8.136 1.08,15.625 6.696,21.242 3.744,3.744 8.785,5.256 13.97,5.256 12.961,0 18.577,-8.569 18.577,-17.138 h -9.36 C 23.33,35.139 21.098,39.747 14.258,39.747 4.032,39.747 3.024,28.658 3.024,21.602 3.024,14.617 3.816,3.24 13.609,3.24 c 6.553,0 10.225,4.392 10.225,11.521 H 11.81 v 7.705 H 32.691 V -3.889 H 26.643 L 25.202,1.943 C 24.051,-0.864 20.018,-4.896 12.89,-4.896 8.209,-4.896 3.601,-3.528 0,0"
             style="fill:#000000;fill-opacity:1;fill-rule:nonzero;stroke:none"
             id="path32"
             inkscape:connector-curvature="0" /></g><g
           id="g34"
           transform="translate(212.0446,76.6396)"><path
             d="M 0,0 H 10.873 V 35.643 H 0 v 7.705 H 31.251 V 35.643 H 20.306 V 0 H 31.251 V -7.705 H 0 Z"
             style="fill:#000000;fill-opacity:1;fill-rule:nonzero;stroke:none"
             id="path36"
             inkscape:connector-curvature="0" /></g><g
           id="g38"
           transform="translate(276.9186,68.9346)"><path
             d="m 0,0 h -9.217 v 42.412 h -15.914 v 8.641 H 15.913 V 42.412 H 0 Z"
             style="fill:#000000;fill-opacity:1;fill-rule:nonzero;stroke:none"
             id="path40"
             inkscape:connector-curvature="0" /></g><g
           id="g42"
           transform="translate(310.613,89.8887)"><path
             d="M 0,0 H 12.602 L 6.337,21.674 Z M 15.05,-8.281 H -2.376 l -3.673,-12.673 h -9.648 L 0.432,30.099 H 12.529 L 28.37,-20.954 h -9.648 z"
             style="fill:#000000;fill-opacity:1;fill-rule:nonzero;stroke:none"
             id="path44"
             inkscape:connector-curvature="0" /></g><g
           id="g46"
           transform="translate(346.9001,119.9873)"><path
             d="m 0,0 h 9.289 v -42.268 h 24.77 v -8.785 H 0 Z"
             style="fill:#000000;fill-opacity:1;fill-rule:nonzero;stroke:none"
             id="path48"
             inkscape:connector-curvature="0" /></g><g
           id="g50"
           transform="translate(93.6071)"><path
             d="m 0,0 c -9.361,0 -19.514,5.544 -19.514,17.354 h 9.505 c 0,-6.625 5.041,-9.362 10.153,-9.362 5.041,0 10.225,2.089 10.225,7.561 0,3.6 -2.952,5.545 -6.624,6.193 l -7.705,1.296 c -8.641,1.512 -14.186,5.977 -14.186,14.113 0,9.145 8.137,15.913 18.362,15.913 10.657,0 18.434,-6.84 18.578,-16.057 H 9.433 c -0.216,4.608 -3.384,8.136 -9.361,8.136 -4.68,0 -9.072,-2.376 -9.072,-7.272 0,-3.168 2.448,-5.112 7.056,-5.904 L 5.185,30.818 C 13.537,29.45 19.586,24.698 19.586,16.129 19.586,5.185 9.793,0 0,0"
             style="fill:#000000;fill-opacity:1;fill-rule:nonzero;stroke:none"
             id="path52"
             inkscape:connector-curvature="0" /></g><g
           id="g54"
           transform="translate(145.5915,11.1611)"><path
             d="m 0,0 c 3.528,3.528 3.528,11.089 3.528,15.337 0,4.248 0,11.809 -3.528,15.337 -1.944,1.944 -4.393,2.808 -7.2,2.808 -2.809,0 -5.257,-0.864 -7.201,-2.808 -3.529,-3.528 -3.529,-11.089 -3.529,-15.337 0,-4.248 0,-11.809 3.529,-15.337 1.944,-1.944 4.392,-2.809 7.201,-2.809 2.807,0 5.256,0.865 7.2,2.809 m -20.81,-5.833 c -5.616,5.616 -6.552,13.033 -6.552,21.17 0,8.137 0.936,15.554 6.552,21.17 3.745,3.744 8.425,5.328 13.61,5.328 5.184,0 9.864,-1.584 13.608,-5.328 5.617,-5.616 6.553,-13.033 6.553,-21.17 0,-8.137 -0.936,-15.554 -6.553,-21.17 -3.744,-3.744 -8.424,-5.328 -13.608,-5.328 -5.185,0 -9.865,1.584 -13.61,5.328"
             style="fill:#000000;fill-opacity:1;fill-rule:nonzero;stroke:none"
             id="path56"
             inkscape:connector-curvature="0" /></g><g
           id="g58"
           transform="translate(194.1198,18.3613)"><path
             d="m 0,0 h 9.288 c -0.647,-8.929 -5.975,-18.361 -19.514,-18.361 -5.183,0 -10.008,1.511 -13.753,5.256 -5.616,5.617 -6.624,13.105 -6.624,21.242 0,8.136 1.008,15.625 6.624,21.242 3.745,3.744 8.57,5.256 13.753,5.256 13.178,0 18.867,-9.073 19.514,-18.001 h -9.36 c -0.144,4.824 -2.809,9.648 -10.009,9.648 -2.88,0 -5.4,-1.008 -7.417,-3.024 -3.528,-3.529 -3.672,-10.873 -3.672,-15.121 0,-4.248 0.144,-11.738 3.672,-15.266 2.017,-2.016 4.393,-2.88 7.272,-2.88 C -2.881,-9.937 -0.145,-4.824 0,0"
             style="fill:#000000;fill-opacity:1;fill-rule:nonzero;stroke:none"
             id="path60"
             inkscape:connector-curvature="0" /></g><g
           id="g62"
           transform="translate(212.0446,8.7129)"><path
             d="M 0,0 H 10.873 V 35.643 H 0 v 7.705 H 31.251 V 35.643 H 20.306 V 0 H 31.251 V -7.705 H 0 Z"
             style="fill:#000000;fill-opacity:1;fill-rule:nonzero;stroke:none"
             id="path64"
             inkscape:connector-curvature="0" /></g><g
           id="g66"
           transform="translate(256.8288,52.0605)"><path
             d="M 0,0 H 34.059 V -8.425 H 9.288 V -20.45 h 19.658 v -8.353 H 9.288 v -13.825 h 24.771 v -8.425 H 0 Z"
             style="fill:#000000;fill-opacity:1;fill-rule:nonzero;stroke:none"
             id="path68"
             inkscape:connector-curvature="0" /></g><g
           id="g70"
           transform="translate(321.5583,1.0078)"><path
             d="m 0,0 h -9.217 v 42.412 h -15.914 v 8.641 H 15.913 V 42.412 H 0 Z"
             style="fill:#000000;fill-opacity:1;fill-rule:nonzero;stroke:none"
             id="path72"
             inkscape:connector-curvature="0" /></g><g
           id="g74"
           transform="translate(366.2692,1.0078)"><path
             d="m 0,0 h -9.36 v 21.746 l -17.066,29.307 h 10.225 L -4.392,30.242 7.273,51.053 h 9.792 L 0,21.746 Z"
             style="fill:#000000;fill-opacity:1;fill-rule:nonzero;stroke:none"
             id="path76"
             inkscape:connector-curvature="0" /></g><path
           d="M 680.315,-200.306 H -413.858 V 1653.552 H 680.315 Z"
           style="fill:none;stroke:#000000;stroke-width:37.63700104;stroke-linecap:butt;stroke-linejoin:miter;stroke-miterlimit:10;stroke-dasharray:none;stroke-opacity:1"
           id="path78"
           inkscape:connector-curvature="0" /></g></g></g></svg>